<mxfile host="app.diagrams.net" modified="2021-11-30T07:10:08.563Z" agent="5.0 (Windows NT 10.0; Win64; x64) AppleWebKit/537.36 (KHTML, like Gecko) Chrome/96.0.4664.45 Safari/537.36" etag="umq8WHkYBaCAatmhAfaF" version="15.8.7" type="github">
  <diagram id="C5RBs43oDa-KdzZeNtuy" name="Page-1">
    <mxGraphModel dx="898" dy="481" grid="1" gridSize="10" guides="1" tooltips="1" connect="1" arrows="1" fold="1" page="1" pageScale="1" pageWidth="827" pageHeight="1169" math="0" shadow="0">
      <root>
        <mxCell id="WIyWlLk6GJQsqaUBKTNV-0" />
        <mxCell id="WIyWlLk6GJQsqaUBKTNV-1" parent="WIyWlLk6GJQsqaUBKTNV-0" />
        <mxCell id="pEfZy9Puv7aSzIvBMWyQ-12" style="edgeStyle=orthogonalEdgeStyle;rounded=0;orthogonalLoop=1;jettySize=auto;html=1;exitX=1;exitY=0.5;exitDx=0;exitDy=0;" edge="1" parent="WIyWlLk6GJQsqaUBKTNV-1" source="pEfZy9Puv7aSzIvBMWyQ-0" target="pEfZy9Puv7aSzIvBMWyQ-1">
          <mxGeometry relative="1" as="geometry" />
        </mxCell>
        <mxCell id="pEfZy9Puv7aSzIvBMWyQ-0" value="Water Tank" style="rounded=0;whiteSpace=wrap;html=1;" vertex="1" parent="WIyWlLk6GJQsqaUBKTNV-1">
          <mxGeometry x="120" y="160" width="120" height="60" as="geometry" />
        </mxCell>
        <mxCell id="pEfZy9Puv7aSzIvBMWyQ-13" style="edgeStyle=orthogonalEdgeStyle;rounded=0;orthogonalLoop=1;jettySize=auto;html=1;exitX=1;exitY=0.5;exitDx=0;exitDy=0;entryX=0;entryY=0.5;entryDx=0;entryDy=0;" edge="1" parent="WIyWlLk6GJQsqaUBKTNV-1" source="pEfZy9Puv7aSzIvBMWyQ-1" target="pEfZy9Puv7aSzIvBMWyQ-3">
          <mxGeometry relative="1" as="geometry" />
        </mxCell>
        <mxCell id="pEfZy9Puv7aSzIvBMWyQ-1" value="Heater" style="rounded=0;whiteSpace=wrap;html=1;" vertex="1" parent="WIyWlLk6GJQsqaUBKTNV-1">
          <mxGeometry x="360" y="160" width="120" height="60" as="geometry" />
        </mxCell>
        <mxCell id="pEfZy9Puv7aSzIvBMWyQ-17" style="edgeStyle=orthogonalEdgeStyle;rounded=0;orthogonalLoop=1;jettySize=auto;html=1;exitX=1;exitY=0.5;exitDx=0;exitDy=0;" edge="1" parent="WIyWlLk6GJQsqaUBKTNV-1" source="pEfZy9Puv7aSzIvBMWyQ-2">
          <mxGeometry relative="1" as="geometry">
            <mxPoint x="810" y="310" as="targetPoint" />
          </mxGeometry>
        </mxCell>
        <mxCell id="pEfZy9Puv7aSzIvBMWyQ-2" value="Cup" style="rounded=0;whiteSpace=wrap;html=1;" vertex="1" parent="WIyWlLk6GJQsqaUBKTNV-1">
          <mxGeometry x="600" y="280" width="120" height="60" as="geometry" />
        </mxCell>
        <mxCell id="pEfZy9Puv7aSzIvBMWyQ-16" style="edgeStyle=orthogonalEdgeStyle;rounded=0;orthogonalLoop=1;jettySize=auto;html=1;exitX=0.5;exitY=1;exitDx=0;exitDy=0;entryX=0.5;entryY=0;entryDx=0;entryDy=0;" edge="1" parent="WIyWlLk6GJQsqaUBKTNV-1" source="pEfZy9Puv7aSzIvBMWyQ-3" target="pEfZy9Puv7aSzIvBMWyQ-2">
          <mxGeometry relative="1" as="geometry" />
        </mxCell>
        <mxCell id="pEfZy9Puv7aSzIvBMWyQ-28" style="edgeStyle=orthogonalEdgeStyle;rounded=0;orthogonalLoop=1;jettySize=auto;html=1;exitX=1;exitY=0.5;exitDx=0;exitDy=0;" edge="1" parent="WIyWlLk6GJQsqaUBKTNV-1" source="pEfZy9Puv7aSzIvBMWyQ-3">
          <mxGeometry relative="1" as="geometry">
            <mxPoint x="810" y="189.83333333333337" as="targetPoint" />
          </mxGeometry>
        </mxCell>
        <mxCell id="pEfZy9Puv7aSzIvBMWyQ-3" value="Mixer/Filter" style="rounded=0;whiteSpace=wrap;html=1;" vertex="1" parent="WIyWlLk6GJQsqaUBKTNV-1">
          <mxGeometry x="600" y="160" width="120" height="60" as="geometry" />
        </mxCell>
        <mxCell id="pEfZy9Puv7aSzIvBMWyQ-14" style="edgeStyle=orthogonalEdgeStyle;rounded=0;orthogonalLoop=1;jettySize=auto;html=1;exitX=1;exitY=0.5;exitDx=0;exitDy=0;entryX=0;entryY=0.5;entryDx=0;entryDy=0;" edge="1" parent="WIyWlLk6GJQsqaUBKTNV-1" source="pEfZy9Puv7aSzIvBMWyQ-4" target="pEfZy9Puv7aSzIvBMWyQ-2">
          <mxGeometry relative="1" as="geometry" />
        </mxCell>
        <mxCell id="pEfZy9Puv7aSzIvBMWyQ-4" value="Creamer Tank 1" style="rounded=0;whiteSpace=wrap;html=1;" vertex="1" parent="WIyWlLk6GJQsqaUBKTNV-1">
          <mxGeometry x="360" y="280" width="120" height="60" as="geometry" />
        </mxCell>
        <mxCell id="pEfZy9Puv7aSzIvBMWyQ-15" style="edgeStyle=orthogonalEdgeStyle;rounded=0;orthogonalLoop=1;jettySize=auto;html=1;exitX=1;exitY=0.5;exitDx=0;exitDy=0;entryX=0.5;entryY=1;entryDx=0;entryDy=0;" edge="1" parent="WIyWlLk6GJQsqaUBKTNV-1" source="pEfZy9Puv7aSzIvBMWyQ-5" target="pEfZy9Puv7aSzIvBMWyQ-2">
          <mxGeometry relative="1" as="geometry" />
        </mxCell>
        <mxCell id="pEfZy9Puv7aSzIvBMWyQ-5" value="&lt;br&gt;&lt;span style=&quot;color: rgb(0 , 0 , 0) ; font-family: &amp;#34;helvetica&amp;#34; ; font-size: 12px ; font-style: normal ; font-weight: 400 ; letter-spacing: normal ; text-align: center ; text-indent: 0px ; text-transform: none ; word-spacing: 0px ; background-color: rgb(248 , 249 , 250) ; display: inline ; float: none&quot;&gt;Creamer Tank 2&lt;br&gt;&lt;/span&gt;" style="rounded=0;whiteSpace=wrap;html=1;" vertex="1" parent="WIyWlLk6GJQsqaUBKTNV-1">
          <mxGeometry x="360" y="400" width="120" height="60" as="geometry" />
        </mxCell>
        <mxCell id="pEfZy9Puv7aSzIvBMWyQ-11" value="" style="endArrow=classic;html=1;rounded=0;entryX=0;entryY=0.5;entryDx=0;entryDy=0;" edge="1" parent="WIyWlLk6GJQsqaUBKTNV-1" target="pEfZy9Puv7aSzIvBMWyQ-0">
          <mxGeometry width="50" height="50" relative="1" as="geometry">
            <mxPoint x="10" y="190" as="sourcePoint" />
            <mxPoint x="430" y="260" as="targetPoint" />
          </mxGeometry>
        </mxCell>
        <mxCell id="pEfZy9Puv7aSzIvBMWyQ-18" value="&lt;sub&gt;&lt;span style=&quot;font-size: 12px&quot;&gt;m&lt;sub&gt;1&lt;/sub&gt;&lt;/span&gt;&lt;/sub&gt;" style="text;html=1;align=center;verticalAlign=middle;resizable=0;points=[];autosize=1;strokeColor=none;fillColor=none;" vertex="1" parent="WIyWlLk6GJQsqaUBKTNV-1">
          <mxGeometry x="45" y="165" width="30" height="30" as="geometry" />
        </mxCell>
        <mxCell id="pEfZy9Puv7aSzIvBMWyQ-19" style="edgeStyle=orthogonalEdgeStyle;rounded=0;orthogonalLoop=1;jettySize=auto;html=1;exitX=1;exitY=0.5;exitDx=0;exitDy=0;" edge="1" parent="WIyWlLk6GJQsqaUBKTNV-1">
          <mxGeometry relative="1" as="geometry">
            <mxPoint x="240" y="429.5" as="sourcePoint" />
            <mxPoint x="360" y="429.5" as="targetPoint" />
          </mxGeometry>
        </mxCell>
        <mxCell id="pEfZy9Puv7aSzIvBMWyQ-20" style="edgeStyle=orthogonalEdgeStyle;rounded=0;orthogonalLoop=1;jettySize=auto;html=1;exitX=1;exitY=0.5;exitDx=0;exitDy=0;" edge="1" parent="WIyWlLk6GJQsqaUBKTNV-1">
          <mxGeometry relative="1" as="geometry">
            <mxPoint x="240" y="309.5" as="sourcePoint" />
            <mxPoint x="360" y="309.5" as="targetPoint" />
            <Array as="points">
              <mxPoint x="260" y="309.5" />
              <mxPoint x="260" y="309.5" />
            </Array>
          </mxGeometry>
        </mxCell>
        <mxCell id="pEfZy9Puv7aSzIvBMWyQ-21" value="water" style="text;html=1;strokeColor=none;fillColor=none;align=center;verticalAlign=middle;whiteSpace=wrap;rounded=0;" vertex="1" parent="WIyWlLk6GJQsqaUBKTNV-1">
          <mxGeometry x="30" y="190" width="60" height="30" as="geometry" />
        </mxCell>
        <mxCell id="pEfZy9Puv7aSzIvBMWyQ-22" value="m&lt;sub&gt;2&lt;/sub&gt;" style="text;html=1;align=center;verticalAlign=middle;resizable=0;points=[];autosize=1;strokeColor=none;fillColor=none;" vertex="1" parent="WIyWlLk6GJQsqaUBKTNV-1">
          <mxGeometry x="280" y="170" width="30" height="20" as="geometry" />
        </mxCell>
        <mxCell id="pEfZy9Puv7aSzIvBMWyQ-24" value="water" style="text;html=1;strokeColor=none;fillColor=none;align=center;verticalAlign=middle;whiteSpace=wrap;rounded=0;" vertex="1" parent="WIyWlLk6GJQsqaUBKTNV-1">
          <mxGeometry x="265" y="190" width="60" height="30" as="geometry" />
        </mxCell>
        <mxCell id="pEfZy9Puv7aSzIvBMWyQ-25" value="m&lt;sub&gt;3&lt;/sub&gt;" style="text;html=1;align=center;verticalAlign=middle;resizable=0;points=[];autosize=1;strokeColor=none;fillColor=none;" vertex="1" parent="WIyWlLk6GJQsqaUBKTNV-1">
          <mxGeometry x="530" y="170" width="30" height="20" as="geometry" />
        </mxCell>
        <mxCell id="pEfZy9Puv7aSzIvBMWyQ-29" value="m&lt;span style=&quot;font-size: 10px&quot;&gt;&lt;sub&gt;4&lt;/sub&gt;&lt;/span&gt;" style="text;html=1;align=center;verticalAlign=middle;resizable=0;points=[];autosize=1;strokeColor=none;fillColor=none;" vertex="1" parent="WIyWlLk6GJQsqaUBKTNV-1">
          <mxGeometry x="660" y="120" width="30" height="20" as="geometry" />
        </mxCell>
        <mxCell id="pEfZy9Puv7aSzIvBMWyQ-30" value="m&lt;span style=&quot;font-size: 10px&quot;&gt;&lt;sub&gt;6&lt;/sub&gt;&lt;/span&gt;" style="text;html=1;align=center;verticalAlign=middle;resizable=0;points=[];autosize=1;strokeColor=none;fillColor=none;" vertex="1" parent="WIyWlLk6GJQsqaUBKTNV-1">
          <mxGeometry x="670" y="240" width="30" height="20" as="geometry" />
        </mxCell>
        <mxCell id="pEfZy9Puv7aSzIvBMWyQ-34" value="m&lt;span style=&quot;font-size: 10px&quot;&gt;&lt;sub&gt;9&lt;/sub&gt;&lt;/span&gt;" style="text;html=1;align=center;verticalAlign=middle;resizable=0;points=[];autosize=1;strokeColor=none;fillColor=none;" vertex="1" parent="WIyWlLk6GJQsqaUBKTNV-1">
          <mxGeometry x="530" y="290" width="30" height="20" as="geometry" />
        </mxCell>
        <mxCell id="pEfZy9Puv7aSzIvBMWyQ-35" value="m&lt;span style=&quot;font-size: 8.33333px&quot;&gt;&lt;sub&gt;8&lt;/sub&gt;&lt;/span&gt;" style="text;html=1;align=center;verticalAlign=middle;resizable=0;points=[];autosize=1;strokeColor=none;fillColor=none;" vertex="1" parent="WIyWlLk6GJQsqaUBKTNV-1">
          <mxGeometry x="280" y="290" width="30" height="20" as="geometry" />
        </mxCell>
        <mxCell id="pEfZy9Puv7aSzIvBMWyQ-36" value="m&lt;span style=&quot;font-size: 10px&quot;&gt;&lt;sub&gt;7&lt;/sub&gt;&lt;/span&gt;" style="text;html=1;align=center;verticalAlign=middle;resizable=0;points=[];autosize=1;strokeColor=none;fillColor=none;" vertex="1" parent="WIyWlLk6GJQsqaUBKTNV-1">
          <mxGeometry x="750" y="290" width="30" height="20" as="geometry" />
        </mxCell>
        <mxCell id="pEfZy9Puv7aSzIvBMWyQ-37" value="m&lt;span style=&quot;font-size: 10px&quot;&gt;&lt;sub&gt;10&lt;/sub&gt;&lt;/span&gt;" style="text;html=1;align=center;verticalAlign=middle;resizable=0;points=[];autosize=1;strokeColor=none;fillColor=none;" vertex="1" parent="WIyWlLk6GJQsqaUBKTNV-1">
          <mxGeometry x="275" y="410" width="40" height="20" as="geometry" />
        </mxCell>
        <mxCell id="pEfZy9Puv7aSzIvBMWyQ-38" value="m&lt;span style=&quot;font-size: 10px&quot;&gt;&lt;sub&gt;11&lt;/sub&gt;&lt;/span&gt;" style="text;html=1;align=center;verticalAlign=middle;resizable=0;points=[];autosize=1;strokeColor=none;fillColor=none;" vertex="1" parent="WIyWlLk6GJQsqaUBKTNV-1">
          <mxGeometry x="530" y="410" width="30" height="20" as="geometry" />
        </mxCell>
        <mxCell id="pEfZy9Puv7aSzIvBMWyQ-39" value="water" style="text;html=1;strokeColor=none;fillColor=none;align=center;verticalAlign=middle;whiteSpace=wrap;rounded=0;" vertex="1" parent="WIyWlLk6GJQsqaUBKTNV-1">
          <mxGeometry x="275" y="200" width="60" height="30" as="geometry" />
        </mxCell>
        <mxCell id="pEfZy9Puv7aSzIvBMWyQ-40" value="water" style="text;html=1;strokeColor=none;fillColor=none;align=center;verticalAlign=middle;whiteSpace=wrap;rounded=0;" vertex="1" parent="WIyWlLk6GJQsqaUBKTNV-1">
          <mxGeometry x="735" y="185" width="60" height="30" as="geometry" />
        </mxCell>
        <mxCell id="pEfZy9Puv7aSzIvBMWyQ-41" value="coffee" style="text;html=1;strokeColor=none;fillColor=none;align=center;verticalAlign=middle;whiteSpace=wrap;rounded=0;" vertex="1" parent="WIyWlLk6GJQsqaUBKTNV-1">
          <mxGeometry x="610" y="235" width="60" height="30" as="geometry" />
        </mxCell>
        <mxCell id="pEfZy9Puv7aSzIvBMWyQ-42" value="Drink" style="text;html=1;strokeColor=none;fillColor=none;align=center;verticalAlign=middle;whiteSpace=wrap;rounded=0;" vertex="1" parent="WIyWlLk6GJQsqaUBKTNV-1">
          <mxGeometry x="735" y="310" width="60" height="30" as="geometry" />
        </mxCell>
        <mxCell id="pEfZy9Puv7aSzIvBMWyQ-43" value="water" style="text;html=1;strokeColor=none;fillColor=none;align=center;verticalAlign=middle;whiteSpace=wrap;rounded=0;" vertex="1" parent="WIyWlLk6GJQsqaUBKTNV-1">
          <mxGeometry x="515" y="190" width="60" height="30" as="geometry" />
        </mxCell>
        <mxCell id="pEfZy9Puv7aSzIvBMWyQ-44" value="creamer 2" style="text;html=1;strokeColor=none;fillColor=none;align=center;verticalAlign=middle;whiteSpace=wrap;rounded=0;" vertex="1" parent="WIyWlLk6GJQsqaUBKTNV-1">
          <mxGeometry x="265" y="430" width="60" height="30" as="geometry" />
        </mxCell>
        <mxCell id="pEfZy9Puv7aSzIvBMWyQ-45" value="creamer 1" style="text;html=1;strokeColor=none;fillColor=none;align=center;verticalAlign=middle;whiteSpace=wrap;rounded=0;" vertex="1" parent="WIyWlLk6GJQsqaUBKTNV-1">
          <mxGeometry x="265" y="310" width="60" height="30" as="geometry" />
        </mxCell>
        <mxCell id="pEfZy9Puv7aSzIvBMWyQ-46" value="creamer 1" style="text;html=1;strokeColor=none;fillColor=none;align=center;verticalAlign=middle;whiteSpace=wrap;rounded=0;" vertex="1" parent="WIyWlLk6GJQsqaUBKTNV-1">
          <mxGeometry x="515" y="310" width="60" height="30" as="geometry" />
        </mxCell>
        <mxCell id="pEfZy9Puv7aSzIvBMWyQ-47" value="creamer 2" style="text;html=1;strokeColor=none;fillColor=none;align=center;verticalAlign=middle;whiteSpace=wrap;rounded=0;" vertex="1" parent="WIyWlLk6GJQsqaUBKTNV-1">
          <mxGeometry x="515" y="430" width="60" height="30" as="geometry" />
        </mxCell>
        <mxCell id="pEfZy9Puv7aSzIvBMWyQ-48" style="edgeStyle=orthogonalEdgeStyle;rounded=0;orthogonalLoop=1;jettySize=auto;html=1;exitX=0.5;exitY=1;exitDx=0;exitDy=0;entryX=0.5;entryY=0;entryDx=0;entryDy=0;" edge="1" parent="WIyWlLk6GJQsqaUBKTNV-1">
          <mxGeometry relative="1" as="geometry">
            <mxPoint x="659.58" y="100" as="sourcePoint" />
            <mxPoint x="659.58" y="160" as="targetPoint" />
          </mxGeometry>
        </mxCell>
        <mxCell id="pEfZy9Puv7aSzIvBMWyQ-49" value="m&lt;span style=&quot;font-size: 10px&quot;&gt;&lt;sub&gt;5&lt;/sub&gt;&lt;/span&gt;" style="text;html=1;align=center;verticalAlign=middle;resizable=0;points=[];autosize=1;strokeColor=none;fillColor=none;" vertex="1" parent="WIyWlLk6GJQsqaUBKTNV-1">
          <mxGeometry x="750" y="165" width="30" height="20" as="geometry" />
        </mxCell>
        <mxCell id="pEfZy9Puv7aSzIvBMWyQ-50" value="coffee grounds" style="text;html=1;strokeColor=none;fillColor=none;align=center;verticalAlign=middle;whiteSpace=wrap;rounded=0;" vertex="1" parent="WIyWlLk6GJQsqaUBKTNV-1">
          <mxGeometry x="600" y="110" width="60" height="30" as="geometry" />
        </mxCell>
        <mxCell id="pEfZy9Puv7aSzIvBMWyQ-51" value="coffee grounds" style="text;html=1;strokeColor=none;fillColor=none;align=center;verticalAlign=middle;whiteSpace=wrap;rounded=0;" vertex="1" parent="WIyWlLk6GJQsqaUBKTNV-1">
          <mxGeometry x="735" y="210" width="60" height="30" as="geometry" />
        </mxCell>
      </root>
    </mxGraphModel>
  </diagram>
</mxfile>
